<svg xmlns="http://www.w3.org/2000/svg" width="16" height="16" viewBox="0 0 16 16">
  <metadata><?xpacket begin="﻿" id="W5M0MpCehiHzreSzNTczkc9d"?>
<x:xmpmeta xmlns:x="adobe:ns:meta/" x:xmptk="Adobe XMP Core 5.6-c142 79.160924, 2017/07/13-01:06:39        ">
   <rdf:RDF xmlns:rdf="http://www.w3.org/1999/02/22-rdf-syntax-ns#">
      <rdf:Description rdf:about=""/>
   </rdf:RDF>
</x:xmpmeta>
                                                                                                    
                                                                                                    
                                                                                                    
                                                                                                    
                                                                                                    
                                                                                                    
                                                                                                    
                                                                                                    
                                                                                                    
                                                                                                    
                                                                                                    
                                                                                                    
                                                                                                    
                                                                                                    
                                                                                                    
                                                                                                    
                                                                                                    
                                                                                                    
                                                                                                    
                                                                                                    
                           
<?xpacket end="w"?></metadata>
<defs>
    <style>
      .cls-1 {
        fill-rule: evenodd;
      }
    </style>
  </defs>
  <path id="button_phone" class="cls-1" d="M788.842,18.274l-0.906-.948s-1.119-.747-1.812,0-1.813,1.9-1.813,1.9-1.126.841,0.907,3.792,8.155,9.482,8.155,9.482,1.295,1.161,3.625,0,2.719-1.9,2.719-1.9a1.823,1.823,0,0,0,0-1.9,5.74,5.74,0,0,0-1.813-1.9,2.7,2.7,0,0,0-2.718.948c-1.862,2.122-6.344-3.793-6.344-3.793a2,2,0,0,1,0-1.9c1.175-1.57,1.962-1.35.907-2.844C789.051,18.235,788.842,18.274,788.842,18.274Z" transform="translate(-784 -17)"/>
</svg>
