<svg xmlns="http://www.w3.org/2000/svg" width="18" height="19" viewBox="0 0 18 19">
  <metadata><?xpacket begin="﻿" id="W5M0MpCehiHzreSzNTczkc9d"?>
<x:xmpmeta xmlns:x="adobe:ns:meta/" x:xmptk="Adobe XMP Core 5.6-c142 79.160924, 2017/07/13-01:06:39        ">
   <rdf:RDF xmlns:rdf="http://www.w3.org/1999/02/22-rdf-syntax-ns#">
      <rdf:Description rdf:about=""/>
   </rdf:RDF>
</x:xmpmeta>
                                                                                                    
                                                                                                    
                                                                                                    
                                                                                                    
                                                                                                    
                                                                                                    
                                                                                                    
                                                                                                    
                                                                                                    
                                                                                                    
                                                                                                    
                                                                                                    
                                                                                                    
                                                                                                    
                                                                                                    
                                                                                                    
                                                                                                    
                                                                                                    
                                                                                                    
                                                                                                    
                           
<?xpacket end="w"?></metadata>
<defs>
    <style>
      .cls-1 {
        fill-rule: evenodd;
      }
    </style>
  </defs>
  <path id="Фигура_1" data-name="Фигура 1" class="cls-1" d="M513,924.654a0.75,0.75,0,1,0-.75.73,0.746,0.746,0,0,0,.75-0.73h0Zm13.5,6.577c0-.423-0.328-1.45-0.879-1.462a2.021,2.021,0,0,0,.41-1.176,1.8,1.8,0,0,0-.621-1.359,1.557,1.557,0,0,0,.211-0.788,1.687,1.687,0,0,0-.762-1.438,3.846,3.846,0,0,0,.059-0.64c0-1.336-.867-1.907-2.168-1.907h-1.5a12.664,12.664,0,0,0-4.008.834,9.31,9.31,0,0,1-2.367.628H514.5v7.308h0.375c0.926,0,2.32,1.952,2.848,2.614,0.293,0.354.574,0.708,0.9,1.04,1.137,1.164.75,2.911,1.5,3.653,1.605,0,1.875-.856,1.875-2.192s-1.125-2.318-1.125-3.654H525a1.531,1.531,0,0,0,1.5-1.461h0Zm1.5,0.011a3,3,0,0,1-3,2.912h-2.063a4.764,4.764,0,0,1,.563,2.192,4.291,4.291,0,0,1-.41,2.124,3.139,3.139,0,0,1-2.965,1.53,1.553,1.553,0,0,1-1.055-.423c-1.172-1.119-.808-2.923-1.5-3.665a19.084,19.084,0,0,1-1.254-1.45,10.726,10.726,0,0,0-1.605-1.77H511.5a1.477,1.477,0,0,1-1.5-1.461v-7.308a1.477,1.477,0,0,1,1.5-1.462h3.375a8.854,8.854,0,0,0,1.617-.456,14.739,14.739,0,0,1,4.957-1h1.313c2.132,0,3.668,1.233,3.656,3.368v0.057a3.276,3.276,0,0,1,.7,2.033,3.525,3.525,0,0,1-.035.491,3.27,3.27,0,0,1,.445,1.644,2.981,2.981,0,0,1-.1.788,3.3,3.3,0,0,1,.574,1.861h0Z" transform="translate(-510 -921)"/>
</svg>
