<svg xmlns="http://www.w3.org/2000/svg" width="18" height="19" viewBox="0 0 18 19">
  <metadata><?xpacket begin="﻿" id="W5M0MpCehiHzreSzNTczkc9d"?>
<x:xmpmeta xmlns:x="adobe:ns:meta/" x:xmptk="Adobe XMP Core 5.6-c142 79.160924, 2017/07/13-01:06:39        ">
   <rdf:RDF xmlns:rdf="http://www.w3.org/1999/02/22-rdf-syntax-ns#">
      <rdf:Description rdf:about=""/>
   </rdf:RDF>
</x:xmpmeta>
                                                                                                    
                                                                                                    
                                                                                                    
                                                                                                    
                                                                                                    
                                                                                                    
                                                                                                    
                                                                                                    
                                                                                                    
                                                                                                    
                                                                                                    
                                                                                                    
                                                                                                    
                                                                                                    
                                                                                                    
                                                                                                    
                                                                                                    
                                                                                                    
                                                                                                    
                                                                                                    
                           
<?xpacket end="w"?></metadata>
<defs>
    <style>
      .cls-1 {
        fill-rule: evenodd;
      }
    </style>
  </defs>
  <path id="icon_thumbs_up" class="cls-1" d="M429,936.346a0.75,0.75,0,1,0-.75.731,0.746,0.746,0,0,0,.75-0.731h0Zm13.5-6.577a1.531,1.531,0,0,0-1.5-1.461h-4.125c0-1.336,1.125-2.307,1.125-3.654s-0.27-2.193-1.875-2.193c-0.75.743-.363,2.49-1.5,3.654-0.328.331-.609,0.685-0.9,1.039-0.528.663-1.922,2.615-2.848,2.615H430.5v7.308h0.375a9.31,9.31,0,0,1,2.367.628,12.663,12.663,0,0,0,4.008.833h1.418c1.324,0,2.25-.513,2.25-1.906a3.846,3.846,0,0,0-.059-0.64,1.686,1.686,0,0,0,.762-1.439,1.551,1.551,0,0,0-.211-0.787,1.8,1.8,0,0,0,.621-1.359,2.018,2.018,0,0,0-.41-1.176c0.551-.012.879-1.039,0.879-1.462h0Zm1.5-.011a3.3,3.3,0,0,1-.574,1.861,2.981,2.981,0,0,1,.105.788,3.27,3.27,0,0,1-.445,1.644,3.525,3.525,0,0,1,.035.491,3.276,3.276,0,0,1-.7,2.033c0.023,2.158-1.488,3.425-3.656,3.425H437.25a14.757,14.757,0,0,1-4.758-1,8.859,8.859,0,0,0-1.617-.457H427.5a1.476,1.476,0,0,1-1.5-1.461v-7.308a1.476,1.476,0,0,1,1.5-1.461h3.211a10.726,10.726,0,0,0,1.6-1.77c0.4-.5.809-0.994,1.254-1.462,0.7-.73.328-2.535,1.5-3.654a1.557,1.557,0,0,1,1.055-.422,3.138,3.138,0,0,1,2.965,1.53,4.291,4.291,0,0,1,.41,2.124,4.764,4.764,0,0,1-.563,2.192H441a3,3,0,0,1,3,2.912h0Z" transform="translate(-426 -921)"/>
</svg>
