<svg xmlns="http://www.w3.org/2000/svg" width="20" height="21" viewBox="0 0 20 21">
  <metadata><?xpacket begin="﻿" id="W5M0MpCehiHzreSzNTczkc9d"?>
<x:xmpmeta xmlns:x="adobe:ns:meta/" x:xmptk="Adobe XMP Core 5.6-c142 79.160924, 2017/07/13-01:06:39        ">
   <rdf:RDF xmlns:rdf="http://www.w3.org/1999/02/22-rdf-syntax-ns#">
      <rdf:Description rdf:about=""/>
   </rdf:RDF>
</x:xmpmeta>

<?xpacket end="w"?></metadata>
<defs>
    <style>
      .cls-1 {
        fill-rule: evenodd;
      }
    </style>
  </defs>
  <path id="icon_bascket" class="cls-1" d="M637.5,32a2.5,2.5,0,1,1-2.5,2.5A2.5,2.5,0,0,1,637.5,32Zm7,0a2.5,2.5,0,1,1-2.5,2.5A2.5,2.5,0,0,1,644.5,32ZM634.461,20h14.077A1.438,1.438,0,0,1,650,21.411l-2.923,7.176c0,0.78-1.385,1.412-2.193,1.412h-8.423A1.437,1.437,0,0,1,635,28.588l-2-7.176A1.437,1.437,0,0,1,634.461,20Zm-2.393-3.358L634,16.124l2.07,7.727-1.932.518ZM630,16h4v2h-4V16Z" transform="translate(-630 -16)"/>
</svg>
